<?xml version="1.0" encoding="utf-8"?>
<!-- Generator: Adobe Illustrator 25.0.0, SVG Export Plug-In . SVG Version: 6.00 Build 0)  -->
<svg version="1.1" id="Calque_1" xmlns="http://www.w3.org/2000/svg" xmlns:xlink="http://www.w3.org/1999/xlink" x="0px" y="0px"
	 viewBox="0 0 16 16" style="enable-background:new 0 0 16 16;" xml:space="preserve">
<style type="text/css">
	.st0{fill:#FFFFFF;}
</style>
<path class="st0" d="M5,10.5C5,10.2,5.2,10,5.5,10h2C7.8,10,8,10.2,8,10.5S7.8,11,7.5,11h-2C5.2,11,5,10.8,5,10.5z M5,8.5
	C5,8.2,5.2,8,5.5,8h5C10.8,8,11,8.2,11,8.5S10.8,9,10.5,9h-5C5.2,9,5,8.8,5,8.5z M5,6.5C5,6.2,5.2,6,5.5,6h5C10.8,6,11,6.2,11,6.5
	S10.8,7,10.5,7h-5C5.2,7,5,6.8,5,6.5z M5,4.5C5,4.2,5.2,4,5.5,4h5C10.8,4,11,4.2,11,4.5S10.8,5,10.5,5h-5C5.2,5,5,4.8,5,4.5z"/>
<path class="st0" d="M3,0h10c1.1,0,2,0.9,2,2v12c0,1.1-0.9,2-2,2H3c-1.1,0-2-0.9-2-2v-1h1v1c0,0.6,0.4,1,1,1h10c0.6,0,1-0.4,1-1V2
	c0-0.6-0.4-1-1-1H3C2.4,1,2,1.4,2,2v1H1V2C1,0.9,1.9,0,3,0z"/>
<path class="st0" d="M1,5V4.5C1,4.2,1.2,4,1.5,4S2,4.2,2,4.5V5h0.5C2.8,5,3,5.2,3,5.5S2.8,6,2.5,6h-2C0.2,6,0,5.8,0,5.5S0.2,5,0.5,5
	H1z M1,8V7.5C1,7.2,1.2,7,1.5,7S2,7.2,2,7.5V8h0.5C2.8,8,3,8.2,3,8.5S2.8,9,2.5,9h-2C0.2,9,0,8.8,0,8.5S0.2,8,0.5,8H1z M1,11v-0.5
	C1,10.2,1.2,10,1.5,10S2,10.2,2,10.5V11h0.5C2.8,11,3,11.2,3,11.5S2.8,12,2.5,12h-2C0.2,12,0,11.8,0,11.5S0.2,11,0.5,11H1z"/>
</svg>
