<svg id="Calque_1" data-name="Calque 1" xmlns="http://www.w3.org/2000/svg" viewBox="0 0 13.5 10"><defs><style>.cls-1,.cls-2{fill:#fff;}.cls-1{fill-rule:evenodd;}</style></defs><path class="cls-1" d="M2,2.5a.5.5,0,0,0-.5.5V4a.5.5,0,0,0,.5.5H3A.5.5,0,0,0,3.5,4V3A.5.5,0,0,0,3,2.5ZM3,3H2V4H3Z" transform="translate(-1.5 -2.5)"/><path class="cls-2" d="M5,3.5A.5.5,0,0,1,5.5,3h9a.5.5,0,0,1,0,1h-9A.5.5,0,0,1,5,3.5ZM5.5,7a.5.5,0,0,0,0,1h9a.5.5,0,0,0,0-1Zm0,4a.5.5,0,0,0,0,1h9a.5.5,0,0,0,0-1Z" transform="translate(-1.5 -2.5)"/><path class="cls-1" d="M1.5,7A.5.5,0,0,1,2,6.5H3a.5.5,0,0,1,.5.5V8a.5.5,0,0,1-.5.5H2A.5.5,0,0,1,1.5,8ZM2,7H3V8H2Zm0,3.5a.5.5,0,0,0-.5.5v1a.5.5,0,0,0,.5.5H3a.5.5,0,0,0,.5-.5V11a.5.5,0,0,0-.5-.5ZM3,11H2v1H3Z" transform="translate(-1.5 -2.5)"/></svg>