<?xml version="1.0" encoding="utf-8"?>
<!-- Generator: Adobe Illustrator 25.0.0, SVG Export Plug-In . SVG Version: 6.00 Build 0)  -->
<svg version="1.1" id="Calque_1" xmlns="http://www.w3.org/2000/svg" xmlns:xlink="http://www.w3.org/1999/xlink" x="0px" y="0px"
	 viewBox="0 0 16 16" style="enable-background:new 0 0 16 16;" xml:space="preserve">
<style type="text/css">
	.st0{fill-rule:evenodd;clip-rule:evenodd;fill:#948FEB;}
	.st1{fill:#948FEB;}
</style>
<path class="st0" d="M2,2.5C1.7,2.5,1.5,2.7,1.5,3v1c0,0.3,0.2,0.5,0.5,0.5h1c0.3,0,0.5-0.2,0.5-0.5V3c0-0.3-0.2-0.5-0.5-0.5H2z
	 M3,3H2v1h1V3z"/>
<path class="st1" d="M5,3.5C5,3.2,5.2,3,5.5,3h9C14.8,3,15,3.2,15,3.5S14.8,4,14.5,4h-9C5.2,4,5,3.8,5,3.5z M5.5,7
	C5.2,7,5,7.2,5,7.5S5.2,8,5.5,8h9C14.8,8,15,7.8,15,7.5S14.8,7,14.5,7H5.5z M5.5,11C5.2,11,5,11.2,5,11.5S5.2,12,5.5,12h9
	c0.3,0,0.5-0.2,0.5-0.5S14.8,11,14.5,11H5.5z"/>
<path class="st0" d="M1.5,7c0-0.3,0.2-0.5,0.5-0.5h1c0.3,0,0.5,0.2,0.5,0.5v1c0,0.3-0.2,0.5-0.5,0.5H2C1.7,8.5,1.5,8.3,1.5,8V7z
	 M2,7h1v1H2V7z M2,10.5c-0.3,0-0.5,0.2-0.5,0.5v1c0,0.3,0.2,0.5,0.5,0.5h1c0.3,0,0.5-0.2,0.5-0.5v-1c0-0.3-0.2-0.5-0.5-0.5H2z M3,11
	H2v1h1V11z"/>
</svg>
