<?xml version="1.0" encoding="utf-8"?>
<!-- Generator: Adobe Illustrator 25.0.0, SVG Export Plug-In . SVG Version: 6.00 Build 0)  -->
<svg version="1.1" id="Calque_1" xmlns="http://www.w3.org/2000/svg" xmlns:xlink="http://www.w3.org/1999/xlink" x="0px" y="0px"
	 viewBox="0 0 16 16" style="enable-background:new 0 0 16 16;" xml:space="preserve">
<style type="text/css">
	.st0{fill:#948FEB;}
</style>
<path class="st0" d="M2,0C0.9,0,0,0.9,0,2v12c0,1.1,0.9,2,2,2h12c1.1,0,2-0.9,2-2V2c0-1.1-0.9-2-2-2H2z M5.5,6
	C5.4,6,5.3,5.9,5.3,5.8c0,0,0,0,0,0C5.3,4.1,6.7,3.5,8,3.5c1.4,0,2.7,0.7,2.7,2.2c0,1.1-0.6,1.6-1.2,2.1c-0.7,0.6-1,0.8-1,1.5v0.1
	c0,0.1-0.1,0.2-0.2,0.2H7.4c-0.1,0-0.2-0.1-0.2-0.2l0-0.2c0-0.9,0.5-1.5,1.2-2c0.6-0.4,1-0.7,1-1.4c0-0.8-0.6-1.2-1.3-1.2
	c-0.8,0-1.3,0.5-1.3,1.1C6.6,5.9,6.5,6,6.3,6L5.5,6L5.5,6z M7.8,12.5c-0.6,0-1-0.4-1-0.9c0-0.6,0.4-0.9,1-0.9c0.6,0,1,0.4,1,0.9
	C8.9,12.1,8.4,12.5,7.8,12.5z"/>
</svg>
